<svg viewBox="0 0 1052.3 254.8" xmlns="http://www.w3.org/2000/svg"><path d="m1012.5 227.5c-15.7-1.2-27.7 7.7-52.3 3.5-21.3-3.7-25.7-21.2-55.6-52.4-21.6-22.6-67.5-70.6-115.2-60.9-16.3 3.3-28.7 12.6-36.1 19.1-17.1-56.4-52.7-89.6-85.1-84.2-17 2.9-29.8 15.8-37.7 26.2a340.6 340.6 0 0 0 -35.6-36.7c-30.3-26.8-46.2-40.8-68.9-42-25.5-1.4-53.1 12.7-68.9 42-10.8 19.9-13.1 41.3-13.6 53.4-13.4-28.2-36.4-45-59.7-42.9-30.4 2.8-56.8 37.5-60.6 83.4-29.6-24.6-48.6-24-60.6-18.3-29 13.6-31.3 62.1-60.6 75.3-19.8 8.9-27.5-17.7-54.6-14.2-20.9 2.7-32.8 17.8-47.9 31.8-20.1 18.7-51.3 39.1-99.5 44.2h1052.3c-16.4-20.5-30.1-26.6-39.8-27.3" fill="#fff" opacity=".2"/></svg>