<svg viewBox="0 0 52.2 44.6" xmlns="http://www.w3.org/2000/svg"><g fill="#1b2645"><path d="m0 17a2 2 0 0 1 2.1-1.2h38.8a1.3 1.3 0 0 0 1-.4l6.5-6.6a2.3 2.3 0 0 1 2.2-.6 2 2 0 0 1 1.5 1.7 2.1 2.1 0 0 1 -.7 2.1l-5.4 5.4a1 1 0 0 0 -.3.9v19.1a4.3 4.3 0 0 1 -4.5 4.4 3.7 3.7 0 0 1 -2.5-.9l-8.6-7.4c-.5-.5-.7-.5-1.2.1l-2.6 2.6a3.8 3.8 0 0 1 -3 1.3h-2.9c-.4 0-.6-.2-.8-.6a7.7 7.7 0 0 0 -6.5-5.2 11.6 11.6 0 0 0 -3.2.1.8.8 0 0 1 -.9-.3l-8.7-13.2-.3-.6zm41.3 12.1v-6.8c0-.3 0-.7-.4-.8a1.3 1.3 0 0 0 -.7.4c-2.4 2.4-4.8 4.8-7.1 7.3-.5.5-.5.7 0 1.1l7 6.1a1.3 1.3 0 0 0 .8.3c.4-.1.4-.5.4-.8z"/><path d="m22.4 12h-15.8a1.7 1.7 0 0 1 -1.8-2.1 5.4 5.4 0 0 1 1-1.6 6.9 6.9 0 0 1 6.5-2.4c.4.1.5 0 .7-.3a10.7 10.7 0 0 1 18.9.1c.1.3.2.3.5.2a7.1 7.1 0 0 1 7.2 3.4 1.5 1.5 0 0 1 .2 1.8 1.8 1.8 0 0 1 -1.7.9z"/><path d="m16.9 39.7a5 5 0 0 1 -4.9 4.9 5 5 0 0 1 -4.9-4.9 4.8 4.8 0 0 1 4.9-4.9 4.9 4.9 0 0 1 4.9 4.9z"/></g></svg>