<svg viewBox="0 0 48.3 56.8" xmlns="http://www.w3.org/2000/svg"><g fill="#1b2645"><path d="m34.3 40.5h.2c.4.1.5 0 .5-.4v-6.7c0-.2.1-.2.3-.2l9.1 2.8a1.6 1.6 0 0 1 .6.8c.2.3 3 11.8 3.2 12.8s.1.4-.2.6-9.1 5.9-9.9 6.3l-.8.3c0-.2-.1-.3-.1-.4s-1.5-12.7-1.5-13.2-.1-.5-.5-.5h-.6a.4.4 0 0 0 -.4.4v.4a7.5 7.5 0 0 1 -1.5 0v-.4q0-.5-.3-.3h-16.6c-.6-.1-.6-.1-.6.5a.3.3 0 0 1 -.3.3h-1c-.2 0-.3-.1-.3-.4 0-.2 0-.4-.3-.3h-.7c-.2 0-.3.2-.4.4s-1.4 12.7-1.5 13-.1.3-.4.2-9.8-6.1-10.1-6.5-.2-.3-.2-.5 2.7-11.6 2.8-12.1a3.5 3.5 0 0 1 .7-1.2 2 2 0 0 1 .8-.4c.3-.2 8-2.5 8.3-2.6s.4.1.4.3v6.6c0 .5.1.5.6.4.1-.6.1-.6.7-.6h.3c.5 0 .5 0 .6.4s.2.3.4.4.3-.1.3-.4v-7.5c0-.5.1-.6.6-.8l.8-.2q.1 0 .3.3a7.2 7.2 0 0 0 2.3 3.1 5.5 5.5 0 0 0 2.7 1.2 3.8 3.8 0 0 0 1.5.1 5.5 5.5 0 0 0 2.5-.4 6.2 6.2 0 0 0 1.9-1.2 6.8 6.8 0 0 0 1.8-2.6.9.9 0 0 1 .3-.5l1 .3c.4.1.5.2.5.6v7.4c0 .5 0 .5.6.4v-.3c0-.4.1-.4.5-.4h.3c.7 0 .7 0 .8.7z"/><path d="m16.3 15.9c0 .3.2 1.1-.3 1s-.8-1-.9-1.3a4.1 4.1 0 0 0 -.7-1.5c-.3-.2-.9-.3-1.1-.7a1.1 1.1 0 0 1 0-1.2 2.9 2.9 0 0 0 .3-1.4 26.3 26.3 0 0 1 .6-3.9c1.1-4.7 6.4-7.2 10.9-6.9a11.1 11.1 0 0 1 6.5 2.9c1.9 1.8 2.5 4.1 2.7 6.6.1.6.1 1.3.2 1.9a3.9 3.9 0 0 1 .5 1.4 1.4 1.4 0 0 1 -.5 1c-.5.4-.8.4-1.1 1.1s-.9 2.5-1.5 2-.1-2-.8-1.9a61.8 61.8 0 0 1 -13.6.1c-1-.2-1.2-.3-1.2.8zm11.6-3.1c.4.6 4.5 0 5-.2s.4-.1.4-.7a16.1 16.1 0 0 0 -.4-3.7c-.4-2-1.5-4.7-3.6-5.5s-1.1 1.7-1.1 2.4-.5 7.5-.3 7.7zm-7.8-7.7c-.1-.7-.3-2.9-1.2-2.4a8.3 8.3 0 0 0 -3.7 5.6c-.2 1.2-.3 2.4-.4 3.6s.1.7.8.8 4.2.6 4.6.2a70 70 0 0 0 -.1-7.8z"/><path d="m33.7 15.9c.5 0 .6.7.6.9s-.8 4.1-1.1 4.5l-.6.6a1.1 1.1 0 0 0 -.6.9 11.7 11.7 0 0 1 -.5 2 4.8 4.8 0 0 1 -.8 1.6c-.3.3-3.4 3.5-5.6 4.3a3.1 3.1 0 0 1 -2.5-.1 31.3 31.3 0 0 1 -5.2-4.2c-.3-.5-.5-1.1-.8-1.7a7.1 7.1 0 0 1 -.5-2.1c0-.3-.1-.4-.4-.6a2.2 2.2 0 0 1 -1-1.1 18.3 18.3 0 0 1 -.9-4c0-.2.2-.9.4-.8s.1.2 0 .3a4.3 4.3 0 0 0 .3 2.5 13 13 0 0 0 1.2 2.1 2.7 2.7 0 0 1 .7 1.4 4.9 4.9 0 0 0 .8 2.2c.2.3 4.6 5.1 6.5 5.1s6.1-3.7 6.9-4.6a4.1 4.1 0 0 0 1.1-2.5c.1-.3.1-.6.2-.8l1.3-1.7a6.1 6.1 0 0 0 .8-3 5.3 5.3 0 0 0 -.3-1.2z"/></g></svg>