<svg viewBox="0 0 47.9 59.3" xmlns="http://www.w3.org/2000/svg"><g fill="#1b2645"><path d="m6.5 58 1.9 1.2a1.3 1.3 0 0 0 1.2 0l1.9-1.3c4.1-2.7 6.5-6.8 6.5-11.1v-8h-6.8v-3.6h-4.5v3.7h-6.7v7.9a13.8 13.8 0 0 0 6.5 11.2z"/><path d="m7.2 11.3v21.7h3.5v-21.7c3-1.1 5.1-4.6 5.2-9.1a2.3 2.3 0 0 0 -.7-1.6 2 2 0 0 0 -1.5-.6h-9.7a2.3 2.3 0 0 0 -1.5.7 2 2 0 0 0 -.6 1.5c.2 4.5 2.3 8.1 5.3 9.1zm5.1-7.9a7.1 7.1 0 0 1 -1.7 3.9 2.2 2.2 0 0 1 -1.7.9 2.6 2.6 0 0 1 -1.8-.9 8.3 8.3 0 0 1 -1.7-3.9z"/><path d="m46.5 37.4h-6.4v-2.2h-4.5v2.3h-6.4l-1.3 21.7h20zm-14.1 18.5a22.9 22.9 0 0 0 1.4-7.6 32.8 32.8 0 0 0 -.8-7.6h2.6v4.1h1l.7-2.4h1.1l.7 2.4h1v-4.2h2.7a28 28 0 0 0 -.9 7.7 23.1 23.1 0 0 0 1.6 7.6z"/><path d="m36.1 11.6v21.4h3.4v-21.4c2.8-1 4.9-4.5 5.1-8.9a2 2 0 0 0 -.6-1.5 2.2 2.2 0 0 0 -1.5-.6h-9.5a2 2 0 0 0 -1.5.6 2.2 2.2 0 0 0 -.6 1.5c.2 4.4 2.3 7.9 5.2 8.9zm5-7.7a7.1 7.1 0 0 1 -1.6 3.8 2.6 2.6 0 0 1 -1.7.9 2.6 2.6 0 0 1 -1.8-.9 7.1 7.1 0 0 1 -1.6-3.8z"/></g></svg>