<svg viewBox="0 0 129.8 129.8" xmlns="http://www.w3.org/2000/svg"><path d="m129.8 64.9a64.9 64.9 0 1 1 -64.9-64.9 65 65 0 0 1 64.9 64.9" fill="#6dbd82"/><g fill="#fff"><path d="m75.6 91.7h-21.6s0-2.9.1-3.9-.1-.5-.5-.7a24.1 24.1 0 0 1 -12.2-14 24.8 24.8 0 1 1 34.7 14 .7.7 0 0 0 -.5.8zm-17-26.9 4.4 4.6a2.5 2.5 0 0 0 3.7 0l4.4-4.4 4.5 4.4a2.4 2.4 0 0 0 2 .8 2.3 2.3 0 0 0 2-1.6 2.1 2.1 0 0 0 -.6-2.5l-6.1-6.2a2.4 2.4 0 0 0 -3.7.1l-4.2 4.5c-.3-.2-3.3-3.3-4.6-4.7a2.5 2.5 0 0 0 -3.4-.1l-6.5 6.5a2.3 2.3 0 0 0 -.5 2.3 2.4 2.4 0 0 0 4 1c1.6-1.5 3-3.1 4.6-4.7"/><path d="m59.9 105-2.2-.4a5.2 5.2 0 0 1 -3.6-4.3c-.1-1.2 0-2.5 0-3.7h21.5c0 1.9.4 4-.8 5.8a5.3 5.3 0 0 1 -4.3 2.5h-.7v.8a1.8 1.8 0 0 1 -1.7 1.5h-6.6a1.7 1.7 0 0 1 -1.6-1.6z"/><path d="m96.8 67a3.1 3.1 0 0 1 -3.1-2.9 3.3 3.3 0 0 1 2.3-3.5h1q3.3-.2 6.6 0a3.3 3.3 0 0 1 2.6 5.3 2.9 2.9 0 0 1 -2.4 1.2"/><path d="m26 67a3.2 3.2 0 0 1 -3.2-2.8 3.2 3.2 0 0 1 2.4-3.6c.2-.1 5.3-.2 7.5-.1a3.2 3.2 0 0 1 3.1 2.2 3.2 3.2 0 0 1 -.9 3.6 3.7 3.7 0 0 1 -2 .7z"/><path d="m61.5 25a3.4 3.4 0 0 1 3.4-3.3 3.2 3.2 0 0 1 3.2 3.3q.2 3.3 0 6.6a3.2 3.2 0 0 1 -3.3 3.3 3.3 3.3 0 0 1 -3.3-3.3"/><path d="m42.3 44.3a3.1 3.1 0 0 1 -2.4-.8l-4.9-4.9a3.3 3.3 0 0 1 4.6-4.7c1.7 1.6 3.4 3.2 4.9 4.9a3 3 0 0 1 .6 3.6 3 3 0 0 1 -2.8 1.9"/><path d="m87.3 44.3a2.8 2.8 0 0 1 -2.7-1.9 2.9 2.9 0 0 1 .5-3.5l5-5a3.3 3.3 0 0 1 4.6 4.6c-1.6 1.7-3.3 3.4-5 5a3.1 3.1 0 0 1 -2.4.8"/></g></svg>