<svg fill="#1b2645" viewBox="0 0 96.2 80" xmlns="http://www.w3.org/2000/svg"><path d="m88.9 20.4a14.7 14.7 0 0 1 -2.1 8 11.5 11.5 0 0 1 -5 4.3l-15.4 7.1c-6.9 3.2-13.9 6.3-20.8 9.6a12.3 12.3 0 0 1 -12.3-.7c-7.2-4.4-11.6-15-9.3-22.9a11.8 11.8 0 0 1 6.7-7.9l36-16.6a11.9 11.9 0 0 1 12.2.8c5.6 3.5 8.6 8.9 9.7 15.4.2 1 .2 2 .3 2.9m-2.1.3a38.9 38.9 0 0 0 -.9-5.3c-1.6-5.2-4.3-9.5-9.3-12s-11.9 0-13.3 6.4.5 11 4 15.7a14.4 14.4 0 0 0 7.2 5.4 8.7 8.7 0 0 0 11-4.9 37.1 37.1 0 0 0 1.3-5.3"/><path d="m90.1 14.9a13.4 13.4 0 0 1 5.7 14.4c-3.9 13.8-7.9 27.6-11.8 41.4a12.1 12.1 0 0 1 -7.7 8c-8.3 3.3-20 0-25.2-7.2a12.6 12.6 0 0 1 -2.2-11.5c1.2-3.6 2.1-7.3 3.2-11a2.2 2.2 0 0 1 1.1-1.2c5.6-2.7 11.2-5.2 16.8-7.8 3.9-1.8 7.8-3.7 11.8-5.4 5.7-2.5 8.3-7.1 8.7-13 .1-2.2-.3-4.5-.4-6.7m-21 62.7a16.5 16.5 0 0 0 7.3-1.5 9.4 9.4 0 0 0 5.6-7.9c.3-3.7-1.4-6.7-4.1-9a20.5 20.5 0 0 0 -17.4-5.3 11.4 11.4 0 0 0 -7.9 4.3c-2.8 3.6-2.5 8.5.8 12.4s9.6 6.7 15.7 7"/><path d="m50.2 49.1c-1 3.5-1.8 6.8-2.8 10a13.7 13.7 0 0 0 .6 10.7l.2.5-6.4.9-25.5 3.5a12.2 12.2 0 0 1 -11.1-4.1c-5.4-5.9-6.9-16.5-3.1-23.7a12.2 12.2 0 0 1 9.8-6.8c3.5-.3 7.1-.9 10.6-1.4.6-.1.8 0 1.1.6 2.4 5.5 5.9 9.9 11.6 12.2a12.8 12.8 0 0 0 10.5-.3zm-48 7.3c.1.5.1 1.2.2 1.9.5 4.4 1.9 8.3 5.2 11.5a9 9 0 0 0 11.2 1.5 11.8 11.8 0 0 0 4.4-5.5 20.2 20.2 0 0 0 -2.4-18.6 10.7 10.7 0 0 0 -4.9-4 8.7 8.7 0 0 0 -10.6 2.9c-2.3 3-3 6.4-3.1 10.3"/><path d="m64.9 12.9a23.8 23.8 0 0 1 1.1-4.2c1.4-3.5 4.7-4.9 8.3-3.9l1.7.8c5.7 2.9 9.6 11.5 8.1 17.7s-5.8 7.3-10.5 4.8-6.7-6.3-8-11c-.3-1.3-.4-2.6-.7-4.2m2.3-.2c.5 5.7 2.4 10.2 7 13.1s7.1.7 7.8-3.6-.8-7.9-3.2-11.2a9.6 9.6 0 0 0 -5.3-4 4.1 4.1 0 0 0 -5.3 2.3c-.5 1.2-.7 2.5-1 3.4"/><path d="m68.3 75.3a18.7 18.7 0 0 1 -12-5 12.8 12.8 0 0 1 -2.4-3.2 6.9 6.9 0 0 1 3-9.5 14.3 14.3 0 0 1 8.6-1.5 18.6 18.6 0 0 1 11.1 5 12.9 12.9 0 0 1 2.2 3 6.8 6.8 0 0 1 -2.6 9.4c-1.8 1.2-4.3 1.8-7.9 1.8m-3.8-16.9c-3 0-5.1.3-6.9 1.5s-2.8 3.7-1.6 6a8.3 8.3 0 0 0 2.3 3 16.1 16.1 0 0 0 11.9 3.9 13.2 13.2 0 0 0 4.7-1.3 4.4 4.4 0 0 0 1.8-6.3 9.3 9.3 0 0 0 -2.1-2.7 16 16 0 0 0 -10.1-4.1"/><path d="m22.1 58.9a13.7 13.7 0 0 1 -1.7 7.4c-2.6 4.7-7.7 5.5-11.5 1.6s-4.7-8.6-4.3-13.7a13 13 0 0 1 2-6.1c2.6-3.9 7.1-4.6 10.6-1.5s4.5 6.6 4.9 10.7a8.6 8.6 0 0 1 0 1.6m-15.4-2.6a15.7 15.7 0 0 0 3 9.1c3 4.1 7.3 3.5 9.3-1.2a15.2 15.2 0 0 0 .8-7.6 14.1 14.1 0 0 0 -3.7-8c-2.7-2.6-5.9-2.2-7.8 1a14.7 14.7 0 0 0 -1.6 6.7"/><path d="m80 20.7a17.1 17.1 0 0 1 -.7 2.6 1.9 1.9 0 0 1 -2.6 1.2 3.5 3.5 0 0 1 -1.4-.6c-3.7-2.2-6.3-8-5.6-12.2.5-2.7 2.1-3.5 4.4-2 3.9 2.5 5.5 6.3 5.9 11m-2.3 0a11.9 11.9 0 0 0 -4.3-8.8c-.3-.3-.8-.3-1.2-.5a5.3 5.3 0 0 0 -.3 1.2 10.9 10.9 0 0 0 3.7 8.7 8.3 8.3 0 0 0 1.6.9z"/><path d="m63.6 60.7a14.8 14.8 0 0 1 8.8 3 9.2 9.2 0 0 1 2.2 2.6 2.1 2.1 0 0 1 -.9 3.2 13.2 13.2 0 0 1 -3.9 1 13.7 13.7 0 0 1 -9.7-3.1 10.6 10.6 0 0 1 -1.9-2.3c-.8-1.4-.5-2.7 1-3.3a30.6 30.6 0 0 1 4.3-1.3zm9 6.7a5.2 5.2 0 0 0 -.8-1.1 11.9 11.9 0 0 0 -10.4-2.9c-1.3.2-1.4.6-.4 1.6a11.5 11.5 0 0 0 10.2 2.9 6 6 0 0 0 1.4-.5"/><path d="m8.9 55a36.2 36.2 0 0 1 1.3-4.2c1-2 2.8-2.2 4.4-.6s2.8 4.9 3.1 7.7a12.1 12.1 0 0 1 -1 5.9c-1.2 2.5-3.1 2.8-4.9.6s-2.8-5.4-2.9-9.4m3.7-3.4c-2.8 2.9-.8 11 1.6 11.8 2.2-2.3 1.3-9.8-1.6-11.8"/></svg>