<svg fill="#1b2645" viewBox="0 0 89.1 94.4" xmlns="http://www.w3.org/2000/svg"><path d="m32.7 90.6 4.3-7.7h12.5c1.3 2.4 2.7 5 4.3 7.7h15.5a1.8 1.8 0 0 1 1.4 1.8 1.7 1.7 0 0 1 -1.3 1.8h-49.5a1.7 1.7 0 0 1 -1.5-1.9 1.6 1.6 0 0 1 1.6-1.6h12.7"/><path d="m54.8 20.3a10.3 10.3 0 1 1 -10.1-10.3 10.3 10.3 0 0 1 10.1 10.3"/><path d="m57 68.7c.5 3.8 1 7.3 1.5 11h-27.9l1.5-11z"/><path d="m4.5 68.7h24.7c-.5 3.8-1 7.3-1.5 11h-27.7c1.6-3.8 3-7.4 4.5-11"/><path d="m89.1 79.7h-27.7l-1.5-10.9h24.7z"/><path d="m32.5 65.6 1.2-8.8h21.6c.4 2.9.8 5.7 1.2 8.8z"/><path d="m5.8 65.6c1.2-3.1 2.4-5.9 3.6-8.9h21.6c-.5 3-.9 5.9-1.4 8.9z"/><path d="m83.4 65.7h-23.9c-.4-3-.8-5.8-1.3-8.9h21.5z"/><path d="m53.7 44.6c.4 3 .8 6 1.2 9.2h-20.8c.5-3.2.9-6.1 1.3-9.2z"/><path d="m10.4 53.8 3.7-8.4a2 2 0 0 1 1.5-.8h16.9c-.4 3.2-.8 6.2-1.1 9.3z"/><path d="m57.8 53.7-1.2-9.1h1.7c4.7 0 9.5.1 14.2 0a2.6 2.6 0 0 1 3 2c.9 2.4 1.9 4.6 2.9 7.2z"/><path d="m61.3 21.9a13.3 13.3 0 0 1 -2 0 1.7 1.7 0 0 1 -.1-3.3 29.4 29.4 0 0 1 4.2 0 1.7 1.7 0 0 1 -.1 3.3z"/><path d="m35.7 30.9a4.2 4.2 0 0 1 -.4 1 37 37 0 0 1 -2.8 2.8 1.5 1.5 0 0 1 -2.2-.1 1.4 1.4 0 0 1 -.3-2.1 28.3 28.3 0 0 1 3-3 1.7 1.7 0 0 1 2.7 1.4"/><path d="m59.3 33.4a1.6 1.6 0 0 1 -2.5 1.4 17 17 0 0 1 -3-3 2.4 2.4 0 0 1 .1-2c.2-.4 1.4-.7 1.6-.5a31.5 31.5 0 0 1 3.7 3.6c.2.1.1.3.1.5"/><path d="m31.3 5.3 1.3.6 2.6 2.6a1.7 1.7 0 0 1 -2.4 2.4 22.9 22.9 0 0 1 -2.7-2.7 2.5 2.5 0 0 1 -.1-1.9c.2-.4.9-.7 1.3-1"/><path d="m27.6 21.9a10.8 10.8 0 0 1 -1.8 0 1.5 1.5 0 0 1 -1.5-1.6 1.6 1.6 0 0 1 1.4-1.7 19.5 19.5 0 0 1 4.2.1 2.2 2.2 0 0 1 1.3 1.5 1.4 1.4 0 0 1 -1.3 1.7z"/><path d="m55.1 11.4c-1.3-.1-2.2-1.5-1.4-2.5a18.2 18.2 0 0 1 3.1-3.1 1.7 1.7 0 0 1 1.8.1 1.8 1.8 0 0 1 .6 1.7 41.7 41.7 0 0 1 -3.6 3.7h-.5"/><path d="m46.2 3.6a10.8 10.8 0 0 1 0 1.8 1.6 1.6 0 0 1 -1.7 1.6 1.5 1.5 0 0 1 -1.6-1.5 26.7 26.7 0 0 1 0-4 1.5 1.5 0 0 1 1.6-1.5 1.6 1.6 0 0 1 1.7 1.6 13.3 13.3 0 0 1 0 2z"/><path d="m42.9 36.9a4.5 4.5 0 0 1 .1-2 2.8 2.8 0 0 1 1.5-1.3 1.4 1.4 0 0 1 1.7 1.3 20.6 20.6 0 0 1 -.1 4.3c-.1.5-.9 1.1-1.5 1.3a1.5 1.5 0 0 1 -1.7-1.3 17.7 17.7 0 0 1 0-2.3z"/></svg>