<svg viewBox="0 0 129.8 129.8" xmlns="http://www.w3.org/2000/svg"><path d="m129.8 64.9a64.9 64.9 0 1 1 -64.9-64.9 65 65 0 0 1 64.9 64.9" fill="#6dbd82"/><g fill="#fff"><path d="m63.8 57.5h18.2c-11.8 16.8-23.5 33.4-35.3 49.9h-.1c4.4-12.9 8.9-25.8 13.3-38.8h-15c6.4-14.8 12.8-29.4 19.2-44.1h21.2z"/><path d="m56.1 104.2 1-1.4 3.4-5a1.6 1.6 0 0 1 1.3-.6 28.3 28.3 0 0 0 17.7-4.4c8.6-5.5 13.6-13.4 14.4-23.6s-3.5-19.9-12.2-26.6a2.7 2.7 0 0 0 -.8-.7l4.1-6.4a38 38 0 0 1 -28.9 68.7"/><path d="m45.9 91.6c-.8 2.5-1.7 5-2.5 7.5a37.9 37.9 0 0 1 12-69.3 1.4 1.4 0 0 1 -.2.6c-1.1 2.7-2.3 5.4-3.5 8.1a1.6 1.6 0 0 1 -.9.9 29.8 29.8 0 0 0 -16.6 19.7 30.4 30.4 0 0 0 10.9 31.9z"/></g></svg>